<mxfile modified="2023-04-26T11:04:50.871Z" host="app.diagrams.net" agent="Mozilla/5.0 (Windows NT 10.0; Win64; x64; rv:109.0) Gecko/20100101 Firefox/112.0" etag="Kh2_gicOen80uNnV8dHp" version="21.2.1" type="device">
  <diagram id="Ht1M8jgEwFfnCIfOTk4-" name="Page-1">
    <mxGraphModel dx="2784" dy="1698" grid="1" gridSize="10" guides="1" tooltips="1" connect="1" arrows="1" fold="1" page="1" pageScale="1" pageWidth="1169" pageHeight="827" math="0" shadow="0">
      <root>
        <mxCell id="0" />
        <mxCell id="1" parent="0" />
        <mxCell id="XcrIh8RqW4nvHomawHJK-60" value="SQS Queues" style="fillColor=none;strokeColor=#5A6C86;dashed=1;verticalAlign=top;fontStyle=0;fontColor=#5A6C86;whiteSpace=wrap;html=1;" parent="1" vertex="1">
          <mxGeometry x="979" y="-120" width="200" height="840" as="geometry" />
        </mxCell>
        <mxCell id="XcrIh8RqW4nvHomawHJK-59" value="SNS Topics" style="fillColor=none;strokeColor=#5A6C86;dashed=1;verticalAlign=top;fontStyle=0;fontColor=#5A6C86;whiteSpace=wrap;html=1;" parent="1" vertex="1">
          <mxGeometry x="740" y="-120" width="200" height="760" as="geometry" />
        </mxCell>
        <mxCell id="UEzPUAAOIrF-is8g5C7q-129" style="edgeStyle=orthogonalEdgeStyle;rounded=0;orthogonalLoop=1;jettySize=auto;html=1;startArrow=open;startFill=0;endArrow=open;endFill=0;strokeWidth=2;strokeColor=#808080;entryX=0;entryY=0.5;entryDx=0;entryDy=0;entryPerimeter=0;" parent="1" source="UEzPUAAOIrF-is8g5C7q-114" target="XcrIh8RqW4nvHomawHJK-1" edge="1">
          <mxGeometry relative="1" as="geometry">
            <Array as="points">
              <mxPoint x="120" y="380" />
              <mxPoint x="120" y="414" />
            </Array>
            <mxPoint x="410" y="620" as="targetPoint" />
          </mxGeometry>
        </mxCell>
        <mxCell id="UEzPUAAOIrF-is8g5C7q-142" style="edgeStyle=orthogonalEdgeStyle;rounded=0;orthogonalLoop=1;jettySize=auto;html=1;startArrow=open;startFill=0;endArrow=open;endFill=0;strokeWidth=2;strokeColor=#808080;entryX=0;entryY=0.5;entryDx=0;entryDy=0;entryPerimeter=0;" parent="1" source="UEzPUAAOIrF-is8g5C7q-114" target="XcrIh8RqW4nvHomawHJK-2" edge="1">
          <mxGeometry relative="1" as="geometry">
            <mxPoint x="200" y="380" as="sourcePoint" />
            <mxPoint x="120" y="140" as="targetPoint" />
            <Array as="points">
              <mxPoint x="120" y="340" />
              <mxPoint x="120" y="143" />
            </Array>
          </mxGeometry>
        </mxCell>
        <mxCell id="XcrIh8RqW4nvHomawHJK-21" value="" style="edgeStyle=orthogonalEdgeStyle;rounded=0;orthogonalLoop=1;jettySize=auto;html=1;" parent="1" source="UEzPUAAOIrF-is8g5C7q-113" target="XcrIh8RqW4nvHomawHJK-20" edge="1">
          <mxGeometry relative="1" as="geometry">
            <Array as="points">
              <mxPoint x="310" y="501" />
              <mxPoint x="310" y="699" />
            </Array>
          </mxGeometry>
        </mxCell>
        <mxCell id="XcrIh8RqW4nvHomawHJK-77" style="edgeStyle=orthogonalEdgeStyle;rounded=0;orthogonalLoop=1;jettySize=auto;html=1;" parent="1" source="UEzPUAAOIrF-is8g5C7q-113" target="XcrIh8RqW4nvHomawHJK-70" edge="1">
          <mxGeometry relative="1" as="geometry">
            <Array as="points">
              <mxPoint x="550" y="510" />
              <mxPoint x="550" y="760" />
              <mxPoint x="1270" y="760" />
              <mxPoint x="1270" y="62" />
            </Array>
          </mxGeometry>
        </mxCell>
        <mxCell id="XcrIh8RqW4nvHomawHJK-119" style="edgeStyle=orthogonalEdgeStyle;rounded=0;orthogonalLoop=1;jettySize=auto;html=1;" parent="1" source="UEzPUAAOIrF-is8g5C7q-113" target="XcrIh8RqW4nvHomawHJK-108" edge="1">
          <mxGeometry relative="1" as="geometry">
            <Array as="points">
              <mxPoint x="570" y="490" />
              <mxPoint x="570" y="740" />
              <mxPoint x="1190" y="740" />
              <mxPoint x="1190" y="655" />
            </Array>
          </mxGeometry>
        </mxCell>
        <mxCell id="cph1r0jImJuGuoo6a1LU-11" style="edgeStyle=orthogonalEdgeStyle;rounded=0;orthogonalLoop=1;jettySize=auto;html=1;" edge="1" parent="1" source="UEzPUAAOIrF-is8g5C7q-113" target="cph1r0jImJuGuoo6a1LU-9">
          <mxGeometry relative="1" as="geometry">
            <Array as="points">
              <mxPoint x="560" y="500" />
              <mxPoint x="560" y="750" />
              <mxPoint x="1260" y="750" />
              <mxPoint x="1260" y="414" />
            </Array>
          </mxGeometry>
        </mxCell>
        <mxCell id="UEzPUAAOIrF-is8g5C7q-113" value="&lt;div&gt;Email Notifier&lt;/div&gt;" style="outlineConnect=0;fontColor=#232F3E;gradientColor=#F78E04;gradientDirection=north;fillColor=#D05C17;strokeColor=#ffffff;dashed=0;verticalLabelPosition=bottom;verticalAlign=top;align=center;html=1;fontSize=12;fontStyle=0;aspect=fixed;shape=mxgraph.aws4.resourceIcon;resIcon=mxgraph.aws4.lambda;labelBackgroundColor=#ffffff;spacingTop=3;" parent="1" vertex="1">
          <mxGeometry x="400" y="462" width="78" height="78" as="geometry" />
        </mxCell>
        <mxCell id="UEzPUAAOIrF-is8g5C7q-114" value="Amazon API&lt;br&gt;Gateway&lt;br&gt;" style="outlineConnect=0;fontColor=#232F3E;gradientColor=#945DF2;gradientDirection=north;fillColor=#5A30B5;strokeColor=#ffffff;dashed=0;verticalLabelPosition=bottom;verticalAlign=top;align=center;html=1;fontSize=12;fontStyle=0;aspect=fixed;shape=mxgraph.aws4.resourceIcon;resIcon=mxgraph.aws4.api_gateway;labelBackgroundColor=#ffffff;" parent="1" vertex="1">
          <mxGeometry x="-140" y="320" width="78" height="78" as="geometry" />
        </mxCell>
        <mxCell id="UEzPUAAOIrF-is8g5C7q-119" value="Amazon&lt;br&gt;DynamoDB&lt;br&gt;" style="outlineConnect=0;fontColor=#232F3E;gradientColor=#4D72F3;gradientDirection=north;fillColor=#3334B9;strokeColor=#ffffff;dashed=0;verticalLabelPosition=bottom;verticalAlign=top;align=center;html=1;fontSize=12;fontStyle=0;aspect=fixed;shape=mxgraph.aws4.resourceIcon;resIcon=mxgraph.aws4.dynamodb;labelBackgroundColor=#ffffff;spacingTop=5;" parent="1" vertex="1">
          <mxGeometry x="400.0000000000002" y="-78" width="78" height="78" as="geometry" />
        </mxCell>
        <mxCell id="XcrIh8RqW4nvHomawHJK-72" style="edgeStyle=orthogonalEdgeStyle;rounded=0;orthogonalLoop=1;jettySize=auto;html=1;" parent="1" source="XcrIh8RqW4nvHomawHJK-1" target="XcrIh8RqW4nvHomawHJK-26" edge="1">
          <mxGeometry relative="1" as="geometry">
            <Array as="points">
              <mxPoint x="730" y="410" />
              <mxPoint x="730" y="424" />
            </Array>
          </mxGeometry>
        </mxCell>
        <mxCell id="XcrIh8RqW4nvHomawHJK-73" style="edgeStyle=orthogonalEdgeStyle;rounded=0;orthogonalLoop=1;jettySize=auto;html=1;" parent="1" source="XcrIh8RqW4nvHomawHJK-1" target="XcrIh8RqW4nvHomawHJK-24" edge="1">
          <mxGeometry relative="1" as="geometry">
            <Array as="points">
              <mxPoint x="720" y="420" />
              <mxPoint x="720" y="560" />
            </Array>
          </mxGeometry>
        </mxCell>
        <mxCell id="XcrIh8RqW4nvHomawHJK-1" value="&lt;div&gt;User Service&lt;/div&gt;" style="sketch=0;points=[[0,0,0],[0.25,0,0],[0.5,0,0],[0.75,0,0],[1,0,0],[0,1,0],[0.25,1,0],[0.5,1,0],[0.75,1,0],[1,1,0],[0,0.25,0],[0,0.5,0],[0,0.75,0],[1,0.25,0],[1,0.5,0],[1,0.75,0]];outlineConnect=0;fontColor=#232F3E;gradientColor=#F78E04;gradientDirection=north;fillColor=#D05C17;strokeColor=#ffffff;dashed=0;verticalLabelPosition=bottom;verticalAlign=top;align=center;html=1;fontSize=12;fontStyle=0;aspect=fixed;shape=mxgraph.aws4.resourceIcon;resIcon=mxgraph.aws4.ec2;" parent="1" vertex="1">
          <mxGeometry x="150" y="375" width="78" height="78" as="geometry" />
        </mxCell>
        <mxCell id="XcrIh8RqW4nvHomawHJK-97" style="edgeStyle=orthogonalEdgeStyle;rounded=0;orthogonalLoop=1;jettySize=auto;html=1;" parent="1" source="XcrIh8RqW4nvHomawHJK-2" target="XcrIh8RqW4nvHomawHJK-27" edge="1">
          <mxGeometry relative="1" as="geometry">
            <Array as="points">
              <mxPoint x="360" y="150" />
              <mxPoint x="360" y="240" />
              <mxPoint x="720" y="240" />
              <mxPoint x="720" y="187" />
            </Array>
          </mxGeometry>
        </mxCell>
        <mxCell id="XcrIh8RqW4nvHomawHJK-127" style="edgeStyle=orthogonalEdgeStyle;rounded=0;orthogonalLoop=1;jettySize=auto;html=1;" parent="1" source="XcrIh8RqW4nvHomawHJK-2" target="XcrIh8RqW4nvHomawHJK-107" edge="1">
          <mxGeometry relative="1" as="geometry">
            <Array as="points">
              <mxPoint x="190" y="-190" />
              <mxPoint x="1250" y="-190" />
              <mxPoint x="1250" y="575" />
            </Array>
          </mxGeometry>
        </mxCell>
        <mxCell id="cph1r0jImJuGuoo6a1LU-3" style="edgeStyle=orthogonalEdgeStyle;rounded=0;orthogonalLoop=1;jettySize=auto;html=1;" edge="1" parent="1" source="XcrIh8RqW4nvHomawHJK-2" target="cph1r0jImJuGuoo6a1LU-2">
          <mxGeometry relative="1" as="geometry">
            <Array as="points">
              <mxPoint x="280" y="144" />
              <mxPoint x="280" y="300" />
            </Array>
          </mxGeometry>
        </mxCell>
        <mxCell id="XcrIh8RqW4nvHomawHJK-2" value="&lt;div&gt;Expense Service&lt;/div&gt;&lt;div&gt;&lt;br&gt;&lt;/div&gt;" style="sketch=0;points=[[0,0,0],[0.25,0,0],[0.5,0,0],[0.75,0,0],[1,0,0],[0,1,0],[0.25,1,0],[0.5,1,0],[0.75,1,0],[1,1,0],[0,0.25,0],[0,0.5,0],[0,0.75,0],[1,0.25,0],[1,0.5,0],[1,0.75,0]];outlineConnect=0;fontColor=#232F3E;gradientColor=#F78E04;gradientDirection=north;fillColor=#D05C17;strokeColor=#ffffff;dashed=0;verticalLabelPosition=bottom;verticalAlign=top;align=center;html=1;fontSize=12;fontStyle=0;aspect=fixed;shape=mxgraph.aws4.resourceIcon;resIcon=mxgraph.aws4.ec2;" parent="1" vertex="1">
          <mxGeometry x="150" y="104.5" width="78" height="78" as="geometry" />
        </mxCell>
        <mxCell id="XcrIh8RqW4nvHomawHJK-79" style="edgeStyle=orthogonalEdgeStyle;rounded=0;orthogonalLoop=1;jettySize=auto;html=1;" parent="1" source="XcrIh8RqW4nvHomawHJK-3" target="XcrIh8RqW4nvHomawHJK-69" edge="1">
          <mxGeometry relative="1" as="geometry">
            <Array as="points">
              <mxPoint x="439" y="210" />
              <mxPoint x="680" y="210" />
              <mxPoint x="680" y="68" />
            </Array>
          </mxGeometry>
        </mxCell>
        <mxCell id="XcrIh8RqW4nvHomawHJK-123" style="edgeStyle=orthogonalEdgeStyle;rounded=0;orthogonalLoop=1;jettySize=auto;html=1;" parent="1" source="XcrIh8RqW4nvHomawHJK-3" target="XcrIh8RqW4nvHomawHJK-100" edge="1">
          <mxGeometry relative="1" as="geometry">
            <Array as="points">
              <mxPoint x="650" y="130" />
              <mxPoint x="650" y="-150" />
              <mxPoint x="1210" y="-150" />
              <mxPoint x="1210" y="144" />
            </Array>
          </mxGeometry>
        </mxCell>
        <mxCell id="XcrIh8RqW4nvHomawHJK-125" style="edgeStyle=orthogonalEdgeStyle;rounded=0;orthogonalLoop=1;jettySize=auto;html=1;" parent="1" source="XcrIh8RqW4nvHomawHJK-3" target="XcrIh8RqW4nvHomawHJK-103" edge="1">
          <mxGeometry relative="1" as="geometry">
            <Array as="points">
              <mxPoint x="630" y="110" />
              <mxPoint x="630" y="-170" />
              <mxPoint x="1230" y="-170" />
              <mxPoint x="1230" y="335" />
            </Array>
          </mxGeometry>
        </mxCell>
        <mxCell id="XcrIh8RqW4nvHomawHJK-126" style="edgeStyle=orthogonalEdgeStyle;rounded=0;orthogonalLoop=1;jettySize=auto;html=1;" parent="1" source="XcrIh8RqW4nvHomawHJK-3" target="XcrIh8RqW4nvHomawHJK-106" edge="1">
          <mxGeometry relative="1" as="geometry">
            <Array as="points">
              <mxPoint x="620" y="100" />
              <mxPoint x="620" y="-180" />
              <mxPoint x="1240" y="-180" />
              <mxPoint x="1240" y="495" />
            </Array>
          </mxGeometry>
        </mxCell>
        <mxCell id="cph1r0jImJuGuoo6a1LU-8" style="edgeStyle=orthogonalEdgeStyle;rounded=0;orthogonalLoop=1;jettySize=auto;html=1;" edge="1" parent="1" source="XcrIh8RqW4nvHomawHJK-3" target="cph1r0jImJuGuoo6a1LU-6">
          <mxGeometry relative="1" as="geometry">
            <Array as="points">
              <mxPoint x="640" y="119" />
              <mxPoint x="640" y="-160" />
              <mxPoint x="1220" y="-160" />
              <mxPoint x="1220" y="240" />
            </Array>
          </mxGeometry>
        </mxCell>
        <mxCell id="XcrIh8RqW4nvHomawHJK-3" value="&lt;div&gt;Budget Overrun&lt;/div&gt;&lt;div&gt;Tracker&lt;br&gt;&lt;/div&gt;" style="outlineConnect=0;fontColor=#232F3E;gradientColor=#F78E04;gradientDirection=north;fillColor=#D05C17;strokeColor=#ffffff;dashed=0;verticalLabelPosition=bottom;verticalAlign=top;align=center;html=1;fontSize=12;fontStyle=0;aspect=fixed;shape=mxgraph.aws4.resourceIcon;resIcon=mxgraph.aws4.lambda;labelBackgroundColor=#ffffff;spacingTop=3;" parent="1" vertex="1">
          <mxGeometry x="400" y="80" width="78" height="78" as="geometry" />
        </mxCell>
        <mxCell id="XcrIh8RqW4nvHomawHJK-4" value="&lt;div&gt;Postgres&lt;/div&gt;&lt;div&gt;Instance&lt;br&gt;&lt;/div&gt;" style="sketch=0;points=[[0,0,0],[0.25,0,0],[0.5,0,0],[0.75,0,0],[1,0,0],[0,1,0],[0.25,1,0],[0.5,1,0],[0.75,1,0],[1,1,0],[0,0.25,0],[0,0.5,0],[0,0.75,0],[1,0.25,0],[1,0.5,0],[1,0.75,0]];outlineConnect=0;fontColor=#232F3E;gradientColor=#4D72F3;gradientDirection=north;fillColor=#3334B9;strokeColor=#ffffff;dashed=0;verticalLabelPosition=bottom;verticalAlign=top;align=center;html=1;fontSize=12;fontStyle=0;aspect=fixed;shape=mxgraph.aws4.resourceIcon;resIcon=mxgraph.aws4.rds;" parent="1" vertex="1">
          <mxGeometry x="150" y="230" width="78" height="78" as="geometry" />
        </mxCell>
        <mxCell id="XcrIh8RqW4nvHomawHJK-5" value="&lt;div&gt;Postgres&lt;/div&gt;&lt;div&gt;Instance&lt;br&gt;&lt;/div&gt;" style="sketch=0;points=[[0,0,0],[0.25,0,0],[0.5,0,0],[0.75,0,0],[1,0,0],[0,1,0],[0.25,1,0],[0.5,1,0],[0.75,1,0],[1,1,0],[0,0.25,0],[0,0.5,0],[0,0.75,0],[1,0.25,0],[1,0.5,0],[1,0.75,0]];outlineConnect=0;fontColor=#232F3E;gradientColor=#4D72F3;gradientDirection=north;fillColor=#3334B9;strokeColor=#ffffff;dashed=0;verticalLabelPosition=bottom;verticalAlign=top;align=center;html=1;fontSize=12;fontStyle=0;aspect=fixed;shape=mxgraph.aws4.resourceIcon;resIcon=mxgraph.aws4.rds;" parent="1" vertex="1">
          <mxGeometry x="150" y="501.5" width="78" height="78" as="geometry" />
        </mxCell>
        <mxCell id="XcrIh8RqW4nvHomawHJK-6" value="" style="edgeStyle=orthogonalEdgeStyle;html=1;endArrow=block;elbow=vertical;startArrow=block;startFill=1;endFill=1;strokeColor=#545B64;rounded=0;" parent="1" source="XcrIh8RqW4nvHomawHJK-1" target="XcrIh8RqW4nvHomawHJK-5" edge="1">
          <mxGeometry width="100" relative="1" as="geometry">
            <mxPoint x="470" y="340" as="sourcePoint" />
            <mxPoint x="570" y="340" as="targetPoint" />
            <Array as="points" />
          </mxGeometry>
        </mxCell>
        <mxCell id="XcrIh8RqW4nvHomawHJK-7" value="" style="edgeStyle=orthogonalEdgeStyle;html=1;endArrow=block;elbow=vertical;startArrow=block;startFill=1;endFill=1;strokeColor=#545B64;rounded=0;entryX=0.5;entryY=1;entryDx=0;entryDy=0;entryPerimeter=0;exitX=0.5;exitY=0;exitDx=0;exitDy=0;exitPerimeter=0;" parent="1" source="XcrIh8RqW4nvHomawHJK-4" target="XcrIh8RqW4nvHomawHJK-2" edge="1">
          <mxGeometry width="100" relative="1" as="geometry">
            <mxPoint x="170" y="240" as="sourcePoint" />
            <mxPoint x="449" y="530" as="targetPoint" />
            <Array as="points">
              <mxPoint x="189" y="230" />
              <mxPoint x="189" y="230" />
            </Array>
          </mxGeometry>
        </mxCell>
        <mxCell id="XcrIh8RqW4nvHomawHJK-19" value="" style="edgeStyle=orthogonalEdgeStyle;html=1;endArrow=block;elbow=vertical;startArrow=block;startFill=1;endFill=1;strokeColor=#545B64;rounded=0;" parent="1" source="XcrIh8RqW4nvHomawHJK-3" target="UEzPUAAOIrF-is8g5C7q-119" edge="1">
          <mxGeometry width="100" relative="1" as="geometry">
            <mxPoint x="320" y="20" as="sourcePoint" />
            <mxPoint x="420" y="20" as="targetPoint" />
          </mxGeometry>
        </mxCell>
        <mxCell id="XcrIh8RqW4nvHomawHJK-20" value="&lt;div&gt;SES&lt;/div&gt;" style="outlineConnect=0;dashed=0;verticalLabelPosition=bottom;verticalAlign=top;align=center;html=1;shape=mxgraph.aws3.ses;fillColor=#D9A741;gradientColor=none;" parent="1" vertex="1">
          <mxGeometry x="-141.5" y="652.5" width="79.5" height="93" as="geometry" />
        </mxCell>
        <mxCell id="XcrIh8RqW4nvHomawHJK-116" style="edgeStyle=orthogonalEdgeStyle;rounded=0;orthogonalLoop=1;jettySize=auto;html=1;" parent="1" source="XcrIh8RqW4nvHomawHJK-24" target="XcrIh8RqW4nvHomawHJK-106" edge="1">
          <mxGeometry relative="1" as="geometry">
            <Array as="points">
              <mxPoint x="950" y="550" />
              <mxPoint x="950" y="495" />
            </Array>
          </mxGeometry>
        </mxCell>
        <mxCell id="XcrIh8RqW4nvHomawHJK-117" style="edgeStyle=orthogonalEdgeStyle;rounded=0;orthogonalLoop=1;jettySize=auto;html=1;" parent="1" source="XcrIh8RqW4nvHomawHJK-24" target="XcrIh8RqW4nvHomawHJK-107" edge="1">
          <mxGeometry relative="1" as="geometry">
            <Array as="points">
              <mxPoint x="960" y="560" />
              <mxPoint x="960" y="575" />
            </Array>
          </mxGeometry>
        </mxCell>
        <mxCell id="XcrIh8RqW4nvHomawHJK-118" style="edgeStyle=orthogonalEdgeStyle;rounded=0;orthogonalLoop=1;jettySize=auto;html=1;" parent="1" source="XcrIh8RqW4nvHomawHJK-24" target="XcrIh8RqW4nvHomawHJK-108" edge="1">
          <mxGeometry relative="1" as="geometry">
            <Array as="points">
              <mxPoint x="950" y="570" />
              <mxPoint x="950" y="655" />
            </Array>
          </mxGeometry>
        </mxCell>
        <mxCell id="XcrIh8RqW4nvHomawHJK-24" value="user-deleted-events-topic" style="outlineConnect=0;dashed=0;verticalLabelPosition=bottom;verticalAlign=top;align=center;html=1;shape=mxgraph.aws3.topic_2;fillColor=#D9A741;gradientColor=none;" parent="1" vertex="1">
          <mxGeometry x="793.5" y="530.75" width="93" height="58.5" as="geometry" />
        </mxCell>
        <mxCell id="XcrIh8RqW4nvHomawHJK-114" style="edgeStyle=orthogonalEdgeStyle;rounded=0;orthogonalLoop=1;jettySize=auto;html=1;" parent="1" source="XcrIh8RqW4nvHomawHJK-26" target="XcrIh8RqW4nvHomawHJK-103" edge="1">
          <mxGeometry relative="1" as="geometry">
            <Array as="points">
              <mxPoint x="960" y="420" />
              <mxPoint x="960" y="335" />
            </Array>
          </mxGeometry>
        </mxCell>
        <mxCell id="cph1r0jImJuGuoo6a1LU-10" style="edgeStyle=orthogonalEdgeStyle;rounded=0;orthogonalLoop=1;jettySize=auto;html=1;" edge="1" parent="1" source="XcrIh8RqW4nvHomawHJK-26" target="cph1r0jImJuGuoo6a1LU-9">
          <mxGeometry relative="1" as="geometry">
            <Array as="points">
              <mxPoint x="970" y="430" />
              <mxPoint x="970" y="415" />
            </Array>
          </mxGeometry>
        </mxCell>
        <mxCell id="XcrIh8RqW4nvHomawHJK-26" value="&lt;div&gt;user-updated-events-topic&lt;/div&gt;" style="outlineConnect=0;dashed=0;verticalLabelPosition=bottom;verticalAlign=top;align=center;html=1;shape=mxgraph.aws3.topic_2;fillColor=#D9A741;gradientColor=none;" parent="1" vertex="1">
          <mxGeometry x="793.5" y="394.5" width="93" height="58.5" as="geometry" />
        </mxCell>
        <mxCell id="XcrIh8RqW4nvHomawHJK-110" style="edgeStyle=orthogonalEdgeStyle;rounded=0;orthogonalLoop=1;jettySize=auto;html=1;" parent="1" source="XcrIh8RqW4nvHomawHJK-27" target="XcrIh8RqW4nvHomawHJK-100" edge="1">
          <mxGeometry relative="1" as="geometry">
            <Array as="points">
              <mxPoint x="960" y="187" />
              <mxPoint x="960" y="144" />
            </Array>
          </mxGeometry>
        </mxCell>
        <mxCell id="XcrIh8RqW4nvHomawHJK-27" value="expense-updated-events-topic" style="outlineConnect=0;dashed=0;verticalLabelPosition=bottom;verticalAlign=top;align=center;html=1;shape=mxgraph.aws3.topic_2;fillColor=#D9A741;gradientColor=none;" parent="1" vertex="1">
          <mxGeometry x="793.5" y="158" width="93" height="58.5" as="geometry" />
        </mxCell>
        <mxCell id="XcrIh8RqW4nvHomawHJK-29" value="" style="sketch=0;points=[[0,0,0],[0.25,0,0],[0.5,0,0],[0.75,0,0],[1,0,0],[0,1,0],[0.25,1,0],[0.5,1,0],[0.75,1,0],[1,1,0],[0,0.25,0],[0,0.5,0],[0,0.75,0],[1,0.25,0],[1,0.5,0],[1,0.75,0]];outlineConnect=0;fontColor=#232F3E;gradientColor=#FF4F8B;gradientDirection=north;fillColor=#BC1356;strokeColor=#ffffff;dashed=0;verticalLabelPosition=bottom;verticalAlign=top;align=center;html=1;fontSize=12;fontStyle=0;aspect=fixed;shape=mxgraph.aws4.resourceIcon;resIcon=mxgraph.aws4.sns;" parent="1" vertex="1">
          <mxGeometry x="797.5" y="-78" width="78" height="78" as="geometry" />
        </mxCell>
        <mxCell id="XcrIh8RqW4nvHomawHJK-30" value="" style="sketch=0;points=[[0,0,0],[0.25,0,0],[0.5,0,0],[0.75,0,0],[1,0,0],[0,1,0],[0.25,1,0],[0.5,1,0],[0.75,1,0],[1,1,0],[0,0.25,0],[0,0.5,0],[0,0.75,0],[1,0.25,0],[1,0.5,0],[1,0.75,0]];outlineConnect=0;fontColor=#232F3E;gradientColor=#FF4F8B;gradientDirection=north;fillColor=#BC1356;strokeColor=#ffffff;dashed=0;verticalLabelPosition=bottom;verticalAlign=top;align=center;html=1;fontSize=12;fontStyle=0;aspect=fixed;shape=mxgraph.aws4.resourceIcon;resIcon=mxgraph.aws4.sqs;" parent="1" vertex="1">
          <mxGeometry x="1040" y="-78" width="78" height="78" as="geometry" />
        </mxCell>
        <mxCell id="XcrIh8RqW4nvHomawHJK-81" style="edgeStyle=orthogonalEdgeStyle;rounded=0;orthogonalLoop=1;jettySize=auto;html=1;" parent="1" source="XcrIh8RqW4nvHomawHJK-69" target="XcrIh8RqW4nvHomawHJK-70" edge="1">
          <mxGeometry relative="1" as="geometry">
            <Array as="points">
              <mxPoint x="970" y="68" />
              <mxPoint x="970" y="68" />
            </Array>
          </mxGeometry>
        </mxCell>
        <mxCell id="XcrIh8RqW4nvHomawHJK-69" value="budget-overrun-events-topic" style="outlineConnect=0;dashed=0;verticalLabelPosition=bottom;verticalAlign=top;align=center;html=1;shape=mxgraph.aws3.topic_2;fillColor=#D9A741;gradientColor=none;" parent="1" vertex="1">
          <mxGeometry x="793.5" y="38.75" width="93" height="58.5" as="geometry" />
        </mxCell>
        <mxCell id="XcrIh8RqW4nvHomawHJK-70" value="budget-overrun-events-queue-1" style="sketch=0;outlineConnect=0;fontColor=#232F3E;gradientColor=none;fillColor=#B0084D;strokeColor=none;dashed=0;verticalLabelPosition=bottom;verticalAlign=top;align=center;html=1;fontSize=12;fontStyle=0;aspect=fixed;pointerEvents=1;shape=mxgraph.aws4.queue;" parent="1" vertex="1">
          <mxGeometry x="1040" y="38.75" width="78" height="47" as="geometry" />
        </mxCell>
        <mxCell id="XcrIh8RqW4nvHomawHJK-100" value="expense-updated-events-queue-1" style="sketch=0;outlineConnect=0;fontColor=#232F3E;gradientColor=none;fillColor=#B0084D;strokeColor=none;dashed=0;verticalLabelPosition=bottom;verticalAlign=top;align=center;html=1;fontSize=12;fontStyle=0;aspect=fixed;pointerEvents=1;shape=mxgraph.aws4.queue;" parent="1" vertex="1">
          <mxGeometry x="1040" y="120.00000000000001" width="78" height="47" as="geometry" />
        </mxCell>
        <mxCell id="XcrIh8RqW4nvHomawHJK-103" value="user-updated-events-queue-1" style="sketch=0;outlineConnect=0;fontColor=#232F3E;gradientColor=none;fillColor=#B0084D;strokeColor=none;dashed=0;verticalLabelPosition=bottom;verticalAlign=top;align=center;html=1;fontSize=12;fontStyle=0;aspect=fixed;pointerEvents=1;shape=mxgraph.aws4.queue;" parent="1" vertex="1">
          <mxGeometry x="1040" y="311" width="78" height="47" as="geometry" />
        </mxCell>
        <mxCell id="XcrIh8RqW4nvHomawHJK-106" value="user-deleted-events-queue-1" style="sketch=0;outlineConnect=0;fontColor=#232F3E;gradientColor=none;fillColor=#B0084D;strokeColor=none;dashed=0;verticalLabelPosition=bottom;verticalAlign=top;align=center;html=1;fontSize=12;fontStyle=0;aspect=fixed;pointerEvents=1;shape=mxgraph.aws4.queue;" parent="1" vertex="1">
          <mxGeometry x="1040" y="472" width="78" height="47" as="geometry" />
        </mxCell>
        <mxCell id="XcrIh8RqW4nvHomawHJK-107" value="user-deleted-events-queue-2" style="sketch=0;outlineConnect=0;fontColor=#232F3E;gradientColor=none;fillColor=#B0084D;strokeColor=none;dashed=0;verticalLabelPosition=bottom;verticalAlign=top;align=center;html=1;fontSize=12;fontStyle=0;aspect=fixed;pointerEvents=1;shape=mxgraph.aws4.queue;" parent="1" vertex="1">
          <mxGeometry x="1040" y="552" width="78" height="47" as="geometry" />
        </mxCell>
        <mxCell id="XcrIh8RqW4nvHomawHJK-108" value="user-deleted-events-queue-3" style="sketch=0;outlineConnect=0;fontColor=#232F3E;gradientColor=none;fillColor=#B0084D;strokeColor=none;dashed=0;verticalLabelPosition=bottom;verticalAlign=top;align=center;html=1;fontSize=12;fontStyle=0;aspect=fixed;pointerEvents=1;shape=mxgraph.aws4.queue;" parent="1" vertex="1">
          <mxGeometry x="1040" y="632" width="78" height="47" as="geometry" />
        </mxCell>
        <mxCell id="7mn_Pui5zHrybBuhjWRf-2" value="&lt;div&gt;Postgres&lt;/div&gt;&lt;div&gt;Instance&lt;br&gt;&lt;/div&gt;" style="sketch=0;points=[[0,0,0],[0.25,0,0],[0.5,0,0],[0.75,0,0],[1,0,0],[0,1,0],[0.25,1,0],[0.5,1,0],[0.75,1,0],[1,1,0],[0,0.25,0],[0,0.5,0],[0,0.75,0],[1,0.25,0],[1,0.5,0],[1,0.75,0]];outlineConnect=0;fontColor=#232F3E;gradientColor=#4D72F3;gradientDirection=north;fillColor=#3334B9;strokeColor=#ffffff;dashed=0;verticalLabelPosition=bottom;verticalAlign=top;align=center;html=1;fontSize=12;fontStyle=0;aspect=fixed;shape=mxgraph.aws4.resourceIcon;resIcon=mxgraph.aws4.rds;" parent="1" vertex="1">
          <mxGeometry x="400" y="610" width="78" height="78" as="geometry" />
        </mxCell>
        <mxCell id="7mn_Pui5zHrybBuhjWRf-4" value="" style="edgeStyle=orthogonalEdgeStyle;html=1;endArrow=block;elbow=vertical;startArrow=block;startFill=1;endFill=1;strokeColor=#545B64;rounded=0;" parent="1" source="UEzPUAAOIrF-is8g5C7q-113" target="7mn_Pui5zHrybBuhjWRf-2" edge="1">
          <mxGeometry width="100" relative="1" as="geometry">
            <mxPoint x="209" y="473" as="sourcePoint" />
            <mxPoint x="209" y="522" as="targetPoint" />
            <Array as="points" />
          </mxGeometry>
        </mxCell>
        <mxCell id="cph1r0jImJuGuoo6a1LU-7" style="edgeStyle=orthogonalEdgeStyle;rounded=0;orthogonalLoop=1;jettySize=auto;html=1;" edge="1" parent="1" source="cph1r0jImJuGuoo6a1LU-2" target="cph1r0jImJuGuoo6a1LU-6">
          <mxGeometry relative="1" as="geometry">
            <Array as="points">
              <mxPoint x="960" y="298" />
              <mxPoint x="960" y="240" />
            </Array>
          </mxGeometry>
        </mxCell>
        <mxCell id="cph1r0jImJuGuoo6a1LU-2" value="expense-deleted-events-topic" style="outlineConnect=0;dashed=0;verticalLabelPosition=bottom;verticalAlign=top;align=center;html=1;shape=mxgraph.aws3.topic_2;fillColor=#D9A741;gradientColor=none;" vertex="1" parent="1">
          <mxGeometry x="793.5" y="268.5" width="93" height="58.5" as="geometry" />
        </mxCell>
        <mxCell id="cph1r0jImJuGuoo6a1LU-6" value="expense-deleted-events-queue-1" style="sketch=0;outlineConnect=0;fontColor=#232F3E;gradientColor=none;fillColor=#B0084D;strokeColor=none;dashed=0;verticalLabelPosition=bottom;verticalAlign=top;align=center;html=1;fontSize=12;fontStyle=0;aspect=fixed;pointerEvents=1;shape=mxgraph.aws4.queue;" vertex="1" parent="1">
          <mxGeometry x="1040" y="216.5" width="78" height="47" as="geometry" />
        </mxCell>
        <mxCell id="cph1r0jImJuGuoo6a1LU-9" value="user-updated-events-queue-2" style="sketch=0;outlineConnect=0;fontColor=#232F3E;gradientColor=none;fillColor=#B0084D;strokeColor=none;dashed=0;verticalLabelPosition=bottom;verticalAlign=top;align=center;html=1;fontSize=12;fontStyle=0;aspect=fixed;pointerEvents=1;shape=mxgraph.aws4.queue;" vertex="1" parent="1">
          <mxGeometry x="1040" y="391" width="78" height="47" as="geometry" />
        </mxCell>
      </root>
    </mxGraphModel>
  </diagram>
</mxfile>
